<svg xmlns="http://www.w3.org/2000/svg" width="350.776" height="370.525" viewBox="0 0 350.776 370.525">
  <g id="Image_upload-bro_3_" data-name="Image upload-bro (3)" transform="translate(-75.511 -60.135)">
    <g id="freepik--background-simple--inject-3">
      <path id="Tracé_248" data-name="Tracé 248" d="M368.44,167.79C327.25,123.86,264.79,98,205.81,118.61c-49.06,17.12-89.63,59.53-111.69,106.79C78.6,258.66,70,301.75,79.45,338c8.2,31.44,34.4,45.42,64.36,47.66,47.38,3.55,94.93-1.59,142.34-.68,33.65.64,85,13.09,115-6.89,28.35-18.88,26.58-60,23.47-90.17C420,242.91,398.72,200.1,368.44,167.79Z" fill="#e1d082"/>
      <path id="Tracé_249" data-name="Tracé 249" d="M368.44,167.79C327.25,123.86,264.79,98,205.81,118.61c-49.06,17.12-89.63,59.53-111.69,106.79C78.6,258.66,70,301.75,79.45,338c8.2,31.44,34.4,45.42,64.36,47.66,47.38,3.55,94.93-1.59,142.34-.68,33.65.64,85,13.09,115-6.89,28.35-18.88,26.58-60,23.47-90.17C420,242.91,398.72,200.1,368.44,167.79Z" fill="#fff" opacity="0.7"/>
    </g>
    <g id="freepik--Arrows--inject-3">
      <path id="Tracé_250" data-name="Tracé 250" d="M119.27,313.61h-22a.5.5,0,0,1-.5-.5v-33.7H90.24a.49.49,0,0,1-.45-.28.51.51,0,0,1,0-.53l18-22.72a.51.51,0,0,1,.78,0l18,22.72a.5.5,0,0,1-.39.81h-6.56v33.7A.5.5,0,0,1,119.27,313.61Zm-21.48-1h21v-33.7a.5.5,0,0,1,.5-.5h6l-17-21.41-17,21.41h6a.5.5,0,0,1,.5.5Z" fill="#e1d082"/>
      <path id="Tracé_251" data-name="Tracé 251" d="M340.11,313.61h-22a.5.5,0,0,1-.5-.5v-33.7h-6.56a.5.5,0,0,1-.39-.81l18.05-22.72a.51.51,0,0,1,.78,0l18.05,22.72a.5.5,0,0,1-.39.81h-6.56v33.7A.5.5,0,0,1,340.11,313.61Zm-21.48-1h21v-33.7a.5.5,0,0,1,.5-.5h6l-17-21.41-17,21.41h6a.5.5,0,0,1,.5.5Z" fill="#e1d082"/>
      <path id="Tracé_252" data-name="Tracé 252" d="M395.83,369.56h-22a.5.5,0,0,1-.5-.5v-33.7H366.8a.5.5,0,0,1-.39-.81l18-22.71a.51.51,0,0,1,.78,0l18,22.71a.5.5,0,0,1-.39.81h-6.56v33.7A.5.5,0,0,1,395.83,369.56Zm-21.47-1h21v-33.7a.5.5,0,0,1,.5-.5h6l-17-21.41-17,21.41h6a.51.51,0,0,1,.5.5Z" fill="#e1d082"/>
      <path id="Tracé_253" data-name="Tracé 253" d="M373,238.88H351a.5.5,0,0,1-.5-.5v-33.7h-6.56a.49.49,0,0,1-.45-.29.51.51,0,0,1,.06-.53l18-22.71a.52.52,0,0,1,.79,0l18,22.71a.51.51,0,0,1-.39.82h-6.56v33.7a.5.5,0,0,1-.39.5Zm-21.47-1h21v-33.7a.5.5,0,0,1,.5-.5h6l-17-21.42-17,21.42h6a.5.5,0,0,1,.5.5Z" fill="#e1d082"/>
      <path id="Tracé_254" data-name="Tracé 254" d="M165.16,242.81h-22a.5.5,0,0,1-.5-.5v-33.7h-6.55a.5.5,0,0,1-.4-.81l18.05-22.72a.51.51,0,0,1,.78,0l18.05,22.72a.5.5,0,0,1-.39.81h-6.56v33.7A.5.5,0,0,1,165.16,242.81Zm-21.48-1h21v-33.7a.5.5,0,0,1,.5-.5h6l-17-21.41-17,21.41h6a.5.5,0,0,1,.5.5Z" fill="#e1d082"/>
      <path id="Tracé_255" data-name="Tracé 255" d="M200.16,369.56h-22a.5.5,0,0,1-.5-.5v-33.7H171.1a.5.5,0,0,1-.39-.81l18.05-22.71a.51.51,0,0,1,.78,0l18.05,22.71a.5.5,0,0,1-.4.81h-6.55v33.7A.5.5,0,0,1,200.16,369.56Zm-21.48-1h21v-33.7a.5.5,0,0,1,.5-.5h6l-17-21.41-17,21.41h6a.5.5,0,0,1,.5.5Z" fill="#e1d082"/>
    </g>
    <g id="freepik--Floor--inject-3">
      <ellipse id="Ellipse_85" data-name="Ellipse 85" cx="102" cy="11.83" rx="102" ry="11.83" transform="translate(152 407)" fill="#e1d082"/>
      <ellipse id="Ellipse_86" data-name="Ellipse 86" cx="102" cy="11.83" rx="102" ry="11.83" transform="translate(152 407)" fill="#fff" opacity="0.5"/>
    </g>
    <g id="freepik--Cloud--inject-3">
      <path id="Tracé_256" data-name="Tracé 256" d="M319.27,134.91a37.65,37.65,0,0,0-57.94-38.24A50.8,50.8,0,0,0,163.55,116c0,.63,0,1.25,0,1.87a33.07,33.07,0,0,0,4.52,64.56v.35H317.65a24,24,0,0,0,1.62-47.86Z" fill="#263238" stroke="#263238" stroke-linecap="round" stroke-linejoin="round" stroke-width="1"/>
      <path id="Tracé_257" data-name="Tracé 257" d="M319.27,130.41a37.65,37.65,0,0,0-57.94-38.24,50.8,50.8,0,0,0-97.78,19.32v1.87a33.07,33.07,0,0,0,4.52,64.56v.35H317.65a24,24,0,0,0,1.62-47.86Z" fill="#e1d082" stroke="#263238" stroke-linecap="round" stroke-linejoin="round" stroke-width="1"/>
    </g>
    <g id="freepik--Character--inject-3">
      <path id="Tracé_258" data-name="Tracé 258" d="M267.4,264.46l-6.29,3.3s-6.89,3-11.39,5.39-26.67,19.48-26.67,19.48l-4.49.3-2.7,1.8s-4.5.9-4.5,1.8.9,1.19,1.8,1.19a17.739,17.739,0,0,0,3.9-1.49s-3.05,4.46-1.85,4.46a46.7,46.7,0,0,1,5.17.83,58.671,58.671,0,0,1,6-.8c1.5,0,5.09-8.09,5.09-8.09s25.77-10.19,29.07-12.59,12.88-8.39,12.88-8.39Z" fill="#fff" stroke="#263238" stroke-linecap="round" stroke-linejoin="round" stroke-width="1"/>
      <path id="Tracé_259" data-name="Tracé 259" d="M291.59,239.84,263.5,265.36l8.1,9.59,15.58-5.99,5.39-28.77Z" fill="#e1d082" stroke="#263238" stroke-linecap="round" stroke-linejoin="round" stroke-width="1"/>
      <path id="Tracé_260" data-name="Tracé 260" d="M267.25,261.96l-3.75,3.4,8.1,9.59,4.83-1.86Z" fill="#263238" stroke="#263238" stroke-linecap="round" stroke-linejoin="round" stroke-width="1"/>
      <path id="Tracé_261" data-name="Tracé 261" d="M340.62,399.53s8.92,9.28,9.83,13.83-1.27,8.56-4.91,7.46-6.92-12.37-7.83-14.37-2-4.19-2-4.19S338.44,398.62,340.62,399.53Z" fill="#e1d082" stroke="#263238" stroke-linecap="round" stroke-linejoin="round" stroke-width="1"/>
      <path id="Tracé_262" data-name="Tracé 262" d="M350.53,413.85c.66,4.34-1.49,8-5,7-1.27-.37-2.49-2-3.58-4C344.33,413,348.16,413.21,350.53,413.85Z" fill="#fff" stroke="#263238" stroke-linecap="round" stroke-linejoin="round" stroke-width="1"/>
      <path id="Tracé_263" data-name="Tracé 263" d="M340.71,414.22c2,2.73,4.54,5.66,6.46,5.15s2.93-4.12,3.28-6c.9,4.54-1.28,8.52-4.91,7.43C343.76,420.29,342.08,417.34,340.71,414.22Z" fill="#fff" stroke="#263238" stroke-linecap="round" stroke-linejoin="round" stroke-width="1"/>
      <path id="Tracé_264" data-name="Tracé 264" d="M338.8,404.63s4-2.19,4.19-1.46-3.82,2.73-4.37,2.73S337.71,405.72,338.8,404.63Z" fill="#fff" stroke="#263238" stroke-linecap="round" stroke-linejoin="round" stroke-width="0.5"/>
      <path id="Tracé_265" data-name="Tracé 265" d="M339.71,405.9s4-2.18,4.19-1.45-3.82,2.73-4.37,2.73S338.62,407,339.71,405.9Z" fill="#fff" stroke="#263238" stroke-linecap="round" stroke-linejoin="round" stroke-width="0.5"/>
      <path id="Tracé_266" data-name="Tracé 266" d="M340.62,407.18s4-2.19,4.19-1.46-3.82,2.73-4.37,2.73S339.53,408.27,340.62,407.18Z" fill="#fff" stroke="#263238" stroke-linecap="round" stroke-linejoin="round" stroke-width="0.5"/>
      <path id="Tracé_267" data-name="Tracé 267" d="M341.53,408.45s4-2.18,4.19-1.46-3.82,2.73-4.37,2.73S340.44,409.54,341.53,408.45Z" fill="#fff" stroke="#263238" stroke-linecap="round" stroke-linejoin="round" stroke-width="0.5"/>
      <path id="Tracé_268" data-name="Tracé 268" d="M268.75,407.88s3.48,4.85,3.79,7.6-2,2.82-4.94,2.51-6.45,1.86-10.59,1.75-8.93-1.92-6.63-3.89,8.3-3.59,9.6-4.72a22.525,22.525,0,0,0,2.18-2.19Z" fill="#e1d082" stroke="#263238" stroke-linecap="round" stroke-linejoin="round" stroke-width="1"/>
      <path id="Tracé_269" data-name="Tracé 269" d="M250.38,415.85a11.871,11.871,0,0,1,2.64-1.57,8.8,8.8,0,0,1,4.34,5.46H257C252.86,419.63,248.08,417.82,250.38,415.85Z" fill="#fff" stroke="#263238" stroke-linecap="round" stroke-linejoin="round" stroke-width="1"/>
      <path id="Tracé_270" data-name="Tracé 270" d="M260.36,410.49s4.27,2.23,3.19,2.67S259.23,411.1,260.36,410.49Z" fill="#fff" stroke="#263238" stroke-linecap="round" stroke-linejoin="round" stroke-width="0.5"/>
      <path id="Tracé_271" data-name="Tracé 271" d="M258.7,410.94s4.27,2.23,3.19,2.67S257.57,411.55,258.7,410.94Z" fill="#fff" stroke="#263238" stroke-linecap="round" stroke-linejoin="round" stroke-width="0.5"/>
      <path id="Tracé_272" data-name="Tracé 272" d="M257.74,411.6s4.27,2.23,3.19,2.67S256.61,412.21,257.74,411.6Z" fill="#fff" stroke="#263238" stroke-linecap="round" stroke-linejoin="round" stroke-width="0.5"/>
      <path id="Tracé_273" data-name="Tracé 273" d="M256,412.4s4.27,2.23,3.19,2.67S254.85,413,256,412.4Z" fill="#fff" stroke="#263238" stroke-linecap="round" stroke-linejoin="round" stroke-width="0.5"/>
      <path id="Tracé_274" data-name="Tracé 274" d="M249.9,416.46a13.36,13.36,0,0,0,9.93,1.47,61.291,61.291,0,0,1,9.52-1.32,11.86,11.86,0,0,0,3.21-.54c-.08,2.17-2.24,2.21-5,1.92-2.94-.32-6.45,1.86-10.59,1.75C253.29,419.64,249.09,418.18,249.9,416.46Z" fill="#fff" stroke="#263238" stroke-linecap="round" stroke-linejoin="round" stroke-width="1"/>
      <path id="Tracé_275" data-name="Tracé 275" d="M312.48,301s-2.1,29.24-.83,36.33,4.4,28.2,4.4,28.2,4.74,3.46,9.47,11.1,15.1,22.93,15.1,22.93.37,2.73-2.91,3.64c0,0-1.64.73-2.55,0s-32-29.48-35.67-35.48-8.55-42.92-8.55-42.92l-4.73-.91-20,38.22,3.48,46.46s.27,1.6-2,2.25-4.1.88-5.46-.29-11.89-52.05-11-53.87,21.07-51.84,21.07-51.84l1.63-4.18s19.11,2.18,27.66.54S311.76,298.24,312.48,301Z" fill="#263238" stroke="#263238" stroke-linecap="round" stroke-linejoin="round" stroke-width="1"/>
      <line id="Ligne_265" data-name="Ligne 265" x1="10.38" y1="3.09" transform="translate(275.83 320.77)" fill="none" stroke="#fff" stroke-linecap="round" stroke-linejoin="round" stroke-width="1"/>
      <line id="Ligne_266" data-name="Ligne 266" x1="14.19" y1="1.64" transform="translate(270.92 322.77)" fill="none" stroke="#fff" stroke-linecap="round" stroke-linejoin="round" stroke-width="1"/>
      <path id="Tracé_276" data-name="Tracé 276" d="M309.22,306.66s-7.68,4.9,0,8.17" fill="none" stroke="#fff" stroke-linecap="round" stroke-linejoin="round" stroke-width="1"/>
      <path id="Tracé_277" data-name="Tracé 277" d="M287.48,308.66l-1.18,4.72-3.16,3.16,3.94,3.54" fill="none" stroke="#fff" stroke-linecap="round" stroke-linejoin="round" stroke-width="1"/>
      <path id="Tracé_278" data-name="Tracé 278" d="M332.47,252.72c-7-5.68-15.69-12.54-15.69-12.54s-18.43-.42-25.19-.34l-9.5,30.32s-8.73,30.2-8.37,31.48,6.56,4.18,20.39,5.82,19.65-4.18,20-6a15.08,15.08,0,0,0-.36-4.92l4.73-8.37,15.65-25.74a7.49,7.49,0,0,0-1.66-9.71Z" fill="#e1d082" stroke="#263238" stroke-linecap="round" stroke-linejoin="round" stroke-width="1"/>
      <path id="Tracé_279" data-name="Tracé 279" d="M327,248.29c-5.36-4.3-10.19-8.11-10.19-8.11s-6.12-.14-12.59-.24c-1.64,3.74-4.47,11.38-2.14,15.16C304.92,259.76,314.31,261.15,327,248.29Z" fill="#263238" stroke="#263238" stroke-linecap="round" stroke-linejoin="round" stroke-width="1"/>
      <path id="Tracé_280" data-name="Tracé 280" d="M318.67,209s-5.27,1.46-7.46,4.73-8.55,22.39-8.37,24,8.37,0,8.37,0-5.64,11.83-5.64,13.83,2.55,3.1,5.82,2.37S325.83,234,325.83,234s3.31,3.84,5.4,2.52c2.4-1.51,1.64-4.55-.18-4.55s5.09-7.46,2.73-12.37S320.86,207.37,318.67,209Z" fill="#fff" stroke="#263238" stroke-linecap="round" stroke-linejoin="round" stroke-width="1"/>
      <path id="Tracé_281" data-name="Tracé 281" d="M316.67,203.19s-10.19,0-10.74,4.91,4.74,7.1,10.56,6.19,11.1-.55,11.83.36-7.1,2.73-5.28,4a5.88,5.88,0,0,0,3.64,1.1s-2.55.72-2.37,2.54,1.77,9.86,3,9.86,3.7-.16,3.7-.16a23,23,0,0,0,6.19-4.55c2.73-2.91,3.45-9.1,0-12.73s-6.19-7.16-8.92-10.07-5.28-6-10.74-6.73S309.21,199.36,316.67,203.19Z" fill="#263238" stroke="#263238" stroke-linecap="round" stroke-linejoin="round" stroke-width="1"/>
      <path id="Tracé_282" data-name="Tracé 282" d="M337.92,222a11.531,11.531,0,0,1,.11,3.23" fill="none" stroke="#fff" stroke-linecap="round" stroke-linejoin="round" stroke-width="1"/>
      <path id="Tracé_283" data-name="Tracé 283" d="M319.22,208.93s-11.17,1.09-7,3.22,10.68-1.86,18.81,1.36a10.43,10.43,0,0,1,6.11,5.86" fill="none" stroke="#fff" stroke-linecap="round" stroke-linejoin="round" stroke-width="1"/>
      <path id="Tracé_284" data-name="Tracé 284" d="M326,217.41s7.63,3.73,8.64,9.15" fill="none" stroke="#fff" stroke-linecap="round" stroke-linejoin="round" stroke-width="1"/>
      <path id="Tracé_285" data-name="Tracé 285" d="M311.21,237.76s8.74-.54,11.1-2.54" fill="none" stroke="#263238" stroke-linecap="round" stroke-linejoin="round" stroke-width="1"/>
      <path id="Tracé_286" data-name="Tracé 286" d="M308.48,230.48s6.37,1.82,8.19-2" fill="none" stroke="#263238" stroke-linecap="round" stroke-linejoin="round" stroke-width="1"/>
      <line id="Ligne_267" data-name="Ligne 267" x2="2.73" y2="1.1" transform="translate(315.58 227.75)" fill="none" stroke="#263238" stroke-linecap="round" stroke-linejoin="round" stroke-width="1"/>
      <path id="Tracé_287" data-name="Tracé 287" d="M310.48,222.11s-5.64.73-5.64,1.64,3.64,3.46,3.64,3.46" fill="#fff" stroke="#263238" stroke-linecap="round" stroke-linejoin="round" stroke-width="1"/>
      <path id="Tracé_288" data-name="Tracé 288" d="M311.2,220.36c-.26.79-.79,1.32-1.19,1.19s-.5-.87-.23-1.66.79-1.32,1.19-1.19S311.47,219.58,311.2,220.36Z" fill="#263238"/>
      <path id="Tracé_289" data-name="Tracé 289" d="M316,222.79c-.27.79-.8,1.32-1.19,1.19s-.5-.88-.24-1.66.8-1.32,1.19-1.19S316.25,222,316,222.79Z" fill="#263238"/>
      <path id="Tracé_290" data-name="Tracé 290" d="M316.25,217.62s2.76.25,2.5,4Z" fill="#263238" stroke="#263238" stroke-linecap="round" stroke-linejoin="round" stroke-width="1"/>
      <path id="Tracé_291" data-name="Tracé 291" d="M313.75,215.87s-1.51-2-3.51.75Z" fill="#263238" stroke="#263238" stroke-linecap="round" stroke-linejoin="round" stroke-width="1"/>
      <path id="Tracé_292" data-name="Tracé 292" d="M263.53,149.31l-26.34-33.15-26.33,33.15h10.3v49.91h32.07V149.31Z" fill="#263238" stroke="#263238" stroke-linecap="round" stroke-linejoin="round" stroke-width="1"/>
      <path id="Tracé_293" data-name="Tracé 293" d="M263.53,147.16l-26.34-33.15-26.33,33.15h10.3v49.91h32.07V147.16Z" fill="#fff" stroke="#263238" stroke-linecap="round" stroke-linejoin="round" stroke-width="1"/>
      <rect id="Rectangle_398" data-name="Rectangle 398" width="107.11" height="107.11" transform="translate(181.45 191.44)" fill="#fff" stroke="#263238" stroke-linecap="round" stroke-linejoin="round" stroke-width="1"/>
      <rect id="Rectangle_399" data-name="Rectangle 399" width="97.15" height="97.15" transform="translate(186.43 196.42)" fill="#263238" stroke="#263238" stroke-linecap="round" stroke-linejoin="round" stroke-width="1"/>
      <path id="Tracé_294" data-name="Tracé 294" d="M261.05,229.13l-22.66,23.68-17.64-4.94a6,6,0,0,0-5.13.92L186.43,270v23.61h97.15v-50l-13.9-14.49a6,6,0,0,0-8.63.01Z" fill="#fff" stroke="#263238" stroke-linecap="round" stroke-linejoin="round" stroke-width="1"/>
      <circle id="Ellipse_87" data-name="Ellipse 87" cx="12.26" cy="12.26" r="12.26" transform="translate(206.453 229.24) rotate(-67.68)" fill="#fff" stroke="#263238" stroke-linecap="round" stroke-linejoin="round" stroke-width="1"/>
      <path id="Tracé_295" data-name="Tracé 295" d="M319.09,257.35l-26.77,27.52-40.8,11.24s-3.64-4.23-6.26-4.26-11.06,3-11.06,3-1.07,2.62,1,2.64a36.809,36.809,0,0,0,6.31-1l-11.57,2h0a3.77,3.77,0,0,0,3.69,3.18h5.21l8.91,1.13,8.43-2.55s39.94-4.35,42.05-4.86,36-29.6,36-29.6,3.83-3.37,2.37-7.28-8.93-6.68-8.93-6.68" fill="#fff" stroke="#263238" stroke-linecap="round" stroke-linejoin="round" stroke-width="1"/>
      <path id="Tracé_296" data-name="Tracé 296" d="M314.26,260.22l-20.41,20.47L309,291.62l26.32-24.79a7.71,7.71,0,0,0,1.35-9.58l-.09-.14a19.42,19.42,0,0,0-7.72-7" fill="#e1d082" stroke="#263238" stroke-linecap="round" stroke-linejoin="round" stroke-width="1"/>
      <path id="Tracé_297" data-name="Tracé 297" d="M309.04,291.62l3.56-3.36-15.23-11.1-3.52,3.53Z" fill="#263238" stroke="#263238" stroke-linecap="round" stroke-linejoin="round" stroke-width="1"/>
      <path id="Tracé_298" data-name="Tracé 298" d="M211.36,296.53l3.85,4.16,3.73.41-5.79-4.96Z" fill="#fff" stroke="#263238" stroke-linecap="round" stroke-linejoin="round" stroke-width="1"/>
      <path id="Tracé_299" data-name="Tracé 299" d="M218.6,296.53l3.85,4.16,3.72.41-5.79-4.96Z" fill="#fff" stroke="#263238" stroke-linecap="round" stroke-linejoin="round" stroke-width="1"/>
      <path id="Tracé_300" data-name="Tracé 300" d="M218.94,301.1l-4.35-5.58h2.69l5.38,5.58-2.28.42Z" fill="#fff" stroke="#263238" stroke-linecap="round" stroke-linejoin="round" stroke-width="1"/>
      <path id="Tracé_301" data-name="Tracé 301" d="M209.84,296.97l1.86,3.51,3.51.21-3.85-4.16Z" fill="#fff" stroke="#263238" stroke-linecap="round" stroke-linejoin="round" stroke-width="1"/>
    </g>
  </g>
</svg>
